<svg width="17" height="15" viewBox="0 0 17 15" fill="none" xmlns="http://www.w3.org/2000/svg">
<path d="M16.1462 4.19848L16.3253 4.41932L16.6587 4.23598L16.7128 4.26098C16.8628 3.67348 16.567 3.04432 16.3878 2.48182C16.1712 1.79015 15.917 1.11098 15.6628 0.427645C15.4962 -0.018189 14.8462 -0.193187 14.5878 0.28598C14.067 1.26098 13.492 2.17765 12.867 3.09015L12.7753 3.36719L12.7503 3.58598V3.59848L12.7462 3.84015L12.7753 3.91515L12.8795 4.08182L13.0462 4.18598L13.242 4.22765L13.3837 4.21098L13.5545 4.11932L13.6878 3.97765L13.6962 3.94848L13.7837 3.86515L13.8712 3.69848L13.8795 3.66932L14.2962 3.34431C14.0753 4.34848 13.8003 5.34015 13.3962 6.28598C12.6837 7.96515 11.6128 9.51099 10.292 10.7735C7.62532 13.3277 3.1875 14.7375 -0.5 14.5C3.525 15.0292 8.00866 14.2818 11.0545 11.536C13.2503 9.55265 14.9712 6.57765 15.3212 3.54015L16.1462 4.19848Z" fill="black"/>
</svg>
