<svg width="18" height="15" viewBox="0 0 18 15" fill="none" xmlns="http://www.w3.org/2000/svg">
<path d="M16.6462 4.19848L16.8253 4.41932L17.1587 4.23598L17.2128 4.26098C17.3628 3.67348 17.067 3.04432 16.8878 2.48182C16.6712 1.79015 16.417 1.11098 16.1628 0.427645C15.9962 -0.018189 15.3462 -0.193187 15.0878 0.28598C14.567 1.26098 13.992 2.17765 13.367 3.09015L13.2753 3.36719L13.2503 3.58598V3.59848L13.2462 3.84015L13.2753 3.91515L13.3795 4.08182L13.5462 4.18598L13.742 4.22765L13.8837 4.21098L14.0545 4.11932L14.1878 3.97765L14.1962 3.94848L14.2837 3.86515L14.3712 3.69848L14.3795 3.66932L14.7962 3.34431C14.5753 4.34848 14.3003 5.34015 13.8962 6.28598C13.1837 7.96515 12.1128 9.51099 10.792 10.7735C8.12532 13.3277 3.6875 14.7375 0 14.5C4.025 15.0292 8.50866 14.2818 11.5545 11.536C13.7503 9.55265 15.4712 6.57765 15.8212 3.54015L16.6462 4.19848Z" fill="#3DE273"/>
</svg>
