<svg width="680" height="680" viewBox="0 0 680 680" fill="none" xmlns="http://www.w3.org/2000/svg">
<g clip-path="url(#clip0_162_759)">
<path d="M340.001 76.0557H340C194.227 76.0557 76.0557 194.227 76.0557 340V340.001C76.0557 485.773 194.227 603.945 340 603.945H340.001C485.773 603.945 603.945 485.773 603.945 340.001V340C603.945 194.227 485.773 76.0557 340.001 76.0557Z" stroke="#172527" stroke-opacity="0.9"/>
<path d="M679.5 340C679.5 152.499 527.501 0.5 340 0.5C152.499 0.5 0.5 152.499 0.5 340C0.5 527.501 152.499 679.5 340 679.5C527.501 679.5 679.5 527.501 679.5 340Z" stroke="#172527" stroke-opacity="0.8"/>
<path d="M528.389 340C528.389 235.956 444.045 151.611 340 151.611C235.956 151.611 151.611 235.956 151.611 340C151.611 444.044 235.956 528.389 340 528.389C444.045 528.389 528.389 444.044 528.389 340Z" stroke="#172527"/>
</g>
<defs>
<clipPath id="clip0_162_759">
<rect width="680" height="680" fill="white"/>
</clipPath>
</defs>
</svg>
