<svg width="56" height="65" viewBox="0 0 56 65" fill="none" xmlns="http://www.w3.org/2000/svg">
<path d="M53.0513 32.4202V29.4729H50.104V26.5256H47.1567V23.5784H41.2621V17.6838H44.2094V14.7365H38.3148V17.6838H35.3676V11.7892H41.2621V8.84188H44.2094V5.89459H47.1567V2.94729H50.104V20.6311H53.0513V0H44.2094V2.94729H41.2621V5.89459H38.3148V8.84188H14.7365V5.89459H11.7892V2.94729H8.84188V0H0V14.7365H2.9473V2.94729H5.89459V5.89459H8.84188V8.84188H11.7892V11.7892H17.6838V17.6838H14.7365V14.7365H8.84188V17.6838H11.7892V23.5784H8.84188V26.5256H11.7892V29.4729H14.7365V32.4202H17.6838V35.3675H20.6311V44.2094H14.7365V47.1567H11.7892V53.0513H14.7365V58.9459H17.6838V61.8932H20.6311V64.8405H32.4203V61.8932H35.3676V58.9459H38.3148V53.0513H41.2621V50.104H44.2094V47.1567H47.1567V44.2094H50.104V41.2621H53.0513V38.3148H55.9986V32.4202H53.0513ZM44.2094 35.3675H41.2621V38.3148H38.3148V41.2621H35.3676V44.2094H32.4203V35.3675H35.3676V32.4202H44.2094V35.3675ZM29.473 58.9459V61.8932H23.5784V58.9459H20.6311V53.0513H32.4203V58.9459H29.473Z" fill="#9FE7C7"/>
</svg>
