<svg width="10" height="13" viewBox="0 0 10 13" fill="none" xmlns="http://www.w3.org/2000/svg">
<path d="M0 13V0H4.70077C6.13475 0 7.27004 0.271802 8.10671 0.815408C8.94338 1.35901 9.36169 2.06703 9.36169 2.93951C9.36169 3.66884 9.12622 4.30286 8.65526 4.84161C8.18427 5.38039 7.53323 5.76293 6.70212 5.98927V6.02701C7.70387 6.12953 8.50397 6.46326 9.10238 7.02811C9.70079 7.59299 10 8.32715 10 9.23058C10 10.3526 9.50243 11.2614 8.50731 11.9568C7.51218 12.6522 6.25555 13 4.73734 13H0ZM2.35723 1.67142V5.38573H4.11569C4.95565 5.38573 5.61446 5.20821 6.09207 4.85324C6.56969 4.49824 6.80849 3.99576 6.80849 3.34576C6.80849 2.22953 5.97516 1.67142 4.30853 1.67142H2.35723ZM2.35723 7.05715V11.3286H4.61768C5.51973 11.3286 6.21675 11.1356 6.70879 10.7497C7.20079 10.3637 7.4468 9.83221 7.4468 9.15515C7.4468 7.75648 6.39849 7.05715 4.30186 7.05715H2.35723Z" fill="white"/>
</svg>
