<svg width="16" height="13" viewBox="0 0 16 13" fill="none" xmlns="http://www.w3.org/2000/svg">
<g clip-path="url(#clip0_200_763)">
<path fill-rule="evenodd" clip-rule="evenodd" d="M5.17201 1.4656H15.2028C15.6188 1.4656 15.956 1.1436 15.956 0.745602C15.956 0.348602 15.6188 0.0256016 15.2028 0.0256016H5.17201C4.75601 0.0256016 4.42001 0.348602 4.42001 0.745602C4.42001 1.1436 4.75724 1.4656 5.17201 1.4656ZM15.2028 5.7826H5.17201C4.75601 5.7826 4.42001 6.1046 4.42001 6.5026C4.42001 6.8996 4.75601 7.2226 5.17078 7.2226H15.2028C15.6188 7.2226 15.956 6.8996 15.956 6.5026C15.956 6.1046 15.6188 5.7826 15.2028 5.7826ZM15.2028 11.5396H5.17201C4.75601 11.5396 4.42001 11.8616 4.42001 12.2596C4.42001 12.6556 4.75601 12.9786 5.17078 12.9786H15.2028C15.6188 12.9786 15.956 12.6556 15.956 12.2586C15.956 11.8616 15.6188 11.5386 15.2028 11.5386V11.5396ZM0.94432 1.2486V3.0506C0.94432 3.2456 1.1117 3.3936 1.33201 3.3936C1.54863 3.3936 1.7197 3.2436 1.7197 3.0506V0.355602C1.7197 0.165602 1.55601 0.0166016 1.34801 0.0166016C1.16586 0.0166016 1.07355 0.134602 1.04401 0.172602C1.04275 0.174255 1.04152 0.175922 1.04032 0.177602L0.712935 0.620602C0.638607 0.699125 0.596427 0.794597 0.59232 0.893602C0.59232 1.0876 0.749858 1.2446 0.94432 1.2486ZM0.43355 8.1896H1.90801C2.10124 8.1896 2.25878 8.0276 2.25878 7.8276C2.25878 7.6296 2.10124 7.4686 1.90801 7.4686H0.837243V7.4626C0.837243 7.3556 1.0957 7.1816 1.30247 7.0406C1.71601 6.7626 2.22924 6.4156 2.22924 5.8146C2.22924 5.2446 1.76647 4.8146 1.15355 4.8146C0.566473 4.8146 0.124627 5.1996 0.124627 5.7116C0.124627 6.0086 0.326474 6.1136 0.500012 6.1136C0.746166 6.1136 0.895089 5.9376 0.895089 5.7676C0.895089 5.6616 0.923397 5.5396 1.14617 5.5396C1.44524 5.5396 1.45386 5.7936 1.45386 5.8226C1.45386 6.0506 1.1437 6.2646 0.844627 6.4716C0.474166 6.7266 0.0544736 7.0156 0.0544736 7.4636V7.8476C0.0544736 8.0526 0.250166 8.1906 0.43355 8.1906V8.1896ZM2.17878 10.5426C2.17878 9.9506 1.81447 9.6116 1.17693 9.6116C0.340012 9.6116 0.119704 10.1816 0.119704 10.4836C0.119704 10.8346 0.392935 10.8736 0.511089 10.8736C0.738781 10.8736 0.892627 10.7256 0.892627 10.5076C0.892627 10.4236 0.924627 10.3266 1.16832 10.3266C1.34309 10.3266 1.41447 10.3506 1.41447 10.5936C1.41447 10.8306 1.36155 10.8566 1.15232 10.8566C0.950473 10.8566 0.797858 11.0086 0.797858 11.2106C0.797858 11.4106 0.951704 11.5606 1.15601 11.5606C1.43294 11.5606 1.48832 11.6686 1.48832 11.8436V11.9186C1.48832 12.2126 1.36893 12.2686 1.1474 12.2686C0.842166 12.2686 0.818781 12.1186 0.818781 12.0716C0.818781 11.8976 0.698166 11.7216 0.428627 11.7216C0.19232 11.7216 0.0507812 11.8626 0.0507812 12.0996C0.0507812 12.5296 0.436012 12.9876 1.15232 12.9876C1.84647 12.9876 2.26124 12.5876 2.26124 11.9176V11.8436C2.26124 11.5696 2.17017 11.3416 1.99786 11.1776C2.11601 11.0146 2.18001 10.7976 2.18001 10.5426H2.17878Z" fill="white"/>
</g>
<defs>
<clipPath id="clip0_200_763">
<rect width="16" height="13" fill="white"/>
</clipPath>
</defs>
</svg>
